<svg width="70" height="71" viewBox="0 0 70 71" fill="none" xmlns="http://www.w3.org/2000/svg">
<rect y="0.294922" width="70" height="70" rx="5" fill="#32EB88"/>
<path fill-rule="evenodd" clip-rule="evenodd" d="M33.1645 23.2803C32.2149 23.2803 31.4069 23.9402 31.1802 24.8297H38.8056C38.5789 23.9402 37.771 23.2803 36.8213 23.2803H33.1645ZM40.9601 24.8297H43.7665C46.743 24.8297 49.1667 27.2828 49.1667 30.2955C49.1667 30.2955 49.0816 31.5708 49.0533 33.3468C49.0504 33.4874 48.9824 33.6251 48.8704 33.7084C48.1887 34.2119 47.565 34.6279 47.5083 34.6566C45.1555 36.2347 42.4214 37.345 39.5087 37.8974C39.3187 37.9347 39.1316 37.8357 39.0353 37.6664C38.2189 36.2519 36.6938 35.3309 34.9929 35.3309C33.3034 35.3309 31.7641 36.2418 30.9236 37.6578C30.8258 37.8242 30.6416 37.9203 30.4531 37.8844C27.5644 37.3307 24.8303 36.2218 22.4917 34.671L21.131 33.7241C21.0176 33.6524 20.9467 33.5233 20.9467 33.3798C20.9042 32.6482 20.8333 30.2955 20.8333 30.2955C20.8333 27.2828 23.257 24.8297 26.2335 24.8297H29.0258C29.2951 22.7495 31.0384 21.1284 33.1645 21.1284H36.8213C38.9474 21.1284 40.6908 22.7495 40.9601 24.8297ZM48.6848 36.45L48.6281 36.4787C45.765 38.401 42.3207 39.6778 38.7064 40.2086C38.1962 40.2804 37.6859 39.9504 37.5442 39.434C37.2324 38.2576 36.226 37.4829 35.0213 37.4829H35.0071H34.9787C33.774 37.4829 32.7676 38.2576 32.4558 39.434C32.3141 39.9504 31.8038 40.2804 31.2936 40.2086C27.6793 39.6778 24.235 38.401 21.3719 36.4787C21.3578 36.4643 21.216 36.3783 21.1026 36.45C20.9751 36.5217 20.9751 36.6939 20.9751 36.6939L21.0743 44.0103C21.0743 47.0229 23.4838 49.4618 26.4603 49.4618H43.5255C46.502 49.4618 48.9115 47.0229 48.9115 44.0103L49.0249 36.6939C49.0249 36.6939 49.0249 36.5217 48.8974 36.45C48.8265 36.407 48.7414 36.4213 48.6848 36.45ZM36.0559 42.4609C36.0559 43.0635 35.5882 43.5369 34.9929 43.5369C34.4118 43.5369 33.9299 43.0635 33.9299 42.4609V40.6103C33.9299 40.0221 34.4118 39.5344 34.9929 39.5344C35.5882 39.5344 36.0559 40.0221 36.0559 40.6103V42.4609Z" fill="white"/>
</svg>
