<svg width="34" height="34" viewBox="0 0 34 34" fill="none" xmlns="http://www.w3.org/2000/svg">
<circle cx="17" cy="17" r="17" fill="white"/>
<path fill-rule="evenodd" clip-rule="evenodd" d="M10.7832 8.6665H13.5999C14.7749 8.6665 15.7166 9.62484 15.7166 10.8007V13.6415C15.7166 14.8248 14.7749 15.7748 13.5999 15.7748H10.7832C9.61656 15.7748 8.66656 14.8248 8.66656 13.6415V10.8007C8.66656 9.62484 9.61656 8.6665 10.7832 8.6665ZM10.7832 18.2246H13.5999C14.7749 18.2246 15.7166 19.1754 15.7166 20.3588V23.1996C15.7166 24.3746 14.7749 25.3329 13.5999 25.3329H10.7832C9.61656 25.3329 8.66656 24.3746 8.66656 23.1996V20.3588C8.66656 19.1754 9.61656 18.2246 10.7832 18.2246ZM23.2166 8.6665H20.4C19.225 8.6665 18.2833 9.62484 18.2833 10.8007V13.6415C18.2833 14.8248 19.225 15.7748 20.4 15.7748H23.2166C24.3833 15.7748 25.3333 14.8248 25.3333 13.6415V10.8007C25.3333 9.62484 24.3833 8.6665 23.2166 8.6665ZM20.4 18.2246H23.2166C24.3833 18.2246 25.3333 19.1754 25.3333 20.3588V23.1996C25.3333 24.3746 24.3833 25.3329 23.2166 25.3329H20.4C19.225 25.3329 18.2833 24.3746 18.2833 23.1996V20.3588C18.2833 19.1754 19.225 18.2246 20.4 18.2246Z" fill="#341EFF"/>
</svg>
