<svg width="58" height="57" viewBox="0 0 58 57" fill="none" xmlns="http://www.w3.org/2000/svg">
<path d="M52.0826 30.0672C52.677 28.8899 52.677 27.4844 52.0826 26.3072L51.4672 25.0881C51.333 24.8224 51.2861 24.5264 51.3316 24.2321L51.5401 22.8826C51.7416 21.5794 51.3073 20.2426 50.3782 19.3067L49.4163 18.3375C49.2065 18.1261 49.0704 17.8591 49.0228 17.5652L48.8042 16.2172C48.5954 14.9299 47.7852 13.8036 46.6331 13.1957L45.4495 12.4977C45.4266 12.4842 45.4034 12.4713 45.3797 12.4592C45.115 12.3231 44.9031 12.1112 44.767 11.8464L44.1424 10.632C43.5536 9.48681 42.3529 8.63993 41.0088 8.4219L39.6609 8.20332C39.367 8.15561 39.1 8.01961 38.8886 7.80993L37.9194 6.8478C36.9835 5.91879 35.647 5.48475 34.3436 5.68589L32.994 5.89447C32.6996 5.93999 32.4037 5.89309 32.138 5.75894L30.9189 5.14348C29.7418 4.54922 28.3362 4.54913 27.1591 5.14348L25.9399 5.75894C25.6743 5.893 25.3784 5.9398 25.084 5.89456L23.7344 5.68599C22.4309 5.48438 21.0944 5.91888 20.1585 6.84789L19.1892 7.80984C18.9779 8.01961 18.7109 8.15561 18.417 8.20332L17.0689 8.4219C15.7249 8.63993 14.5242 9.48672 13.9354 10.632L13.3109 11.8464C13.1747 12.1111 12.9629 12.3231 12.698 12.4592L11.4836 13.0837C10.3383 13.6726 9.49146 14.8733 9.27353 16.2173L9.05485 17.5654C9.00723 17.8593 8.87114 18.1262 8.66137 18.3375L7.69951 19.3068C6.7705 20.2426 6.33619 21.5794 6.53761 22.8826L6.74628 24.2322C6.79179 24.5264 6.7449 24.8224 6.61065 25.0881L5.99519 26.3072C5.40093 27.4843 5.40093 28.8898 5.99519 30.0671L6.61065 31.2861C6.74481 31.5519 6.7917 31.8478 6.74628 32.1421L6.53761 33.4918C6.33619 34.795 6.77059 36.1317 7.69951 37.0676L8.66156 38.0369C8.87133 38.2482 9.00741 38.5152 9.05504 38.8092L9.27371 40.1571C9.49165 41.5011 10.3385 42.7018 11.4837 43.2907L12.6981 43.9151C12.963 44.0513 13.1748 44.2632 13.311 44.528L13.9355 45.7425C14.5244 46.8877 15.7251 47.7346 17.0691 47.9525L18.4171 48.1712C18.711 48.2189 18.978 48.3549 19.1893 48.5646L20.1586 49.5267C21.0946 50.4557 22.4313 50.8898 23.7344 50.6885L25.0841 50.4799C25.3782 50.4344 25.6743 50.4813 25.9399 50.6155L27.1591 51.231C27.7477 51.5281 28.3933 51.6766 29.039 51.6766C29.6847 51.6766 30.3303 51.5281 30.9189 51.231L32.138 50.6155C32.4037 50.4813 32.6999 50.4345 32.994 50.4799L34.3435 50.6885C35.6467 50.8898 36.9835 50.4556 37.9194 49.5265L38.8886 48.5645C39.0999 48.3547 39.3669 48.2187 39.6609 48.171L41.0088 47.9524C42.2961 47.7436 43.4225 46.9334 44.0304 45.7812L44.7284 44.5977C44.7419 44.5747 44.7548 44.5515 44.7669 44.5278C44.903 44.2631 45.115 44.0512 45.3797 43.915L46.5941 43.2906C47.7668 42.6876 48.5931 41.5505 48.8042 40.2487L49.0228 38.9008C49.0705 38.6069 49.2065 38.3399 49.4163 38.1286C49.4309 38.1139 50.4024 37.0432 50.4024 37.0432C51.3148 36.1085 51.7399 34.7836 51.5401 33.4918L51.3316 32.1422C51.286 31.8479 51.3329 31.5519 51.4671 31.2861L52.0826 30.0672Z" fill="#341EFF"/>
<path fill-rule="evenodd" clip-rule="evenodd" d="M23.3446 16.4424L24.1646 17.9729L26.0191 21.4377L25.9873 21.5981L25.9608 21.648H25.9776L24.7091 28.0786L21.5335 28.0268L20.6591 33.0311L23.7283 33.0522L22.9388 37.0576L19.6453 40.7148H22.2174H23.9111H27.9566L29.4585 33.0994L33.5202 33.1327L34.5197 28.2818L34.4529 28.1584L30.4386 28.1258L31.722 21.6173L37.3893 21.5879L38.4368 16.5664V16.5657L23.3446 16.4424Z" fill="white"/>
</svg>
