<svg width="14" height="14" viewBox="0 0 14 14" fill="none" xmlns="http://www.w3.org/2000/svg">
<path fill-rule="evenodd" clip-rule="evenodd" d="M4.1134 0.553955H9.8934C12.1534 0.553955 13.6667 2.14062 13.6667 4.50062V9.94795C13.6667 12.3006 12.1534 13.8873 9.8934 13.8873H4.1134C1.8534 13.8873 0.333405 12.3006 0.333405 9.94795V4.50062C0.333405 2.14062 1.8534 0.553955 4.1134 0.553955ZM6.62007 9.21395L9.78674 6.04729C10.0134 5.82062 10.0134 5.45395 9.78674 5.22062C9.56007 4.99395 9.18674 4.99395 8.96007 5.22062L6.20674 7.97396L5.04007 6.80729C4.8134 6.58062 4.44007 6.58062 4.2134 6.80729C3.98674 7.03396 3.98674 7.40062 4.2134 7.63396L5.80007 9.21395C5.9134 9.32729 6.06007 9.38062 6.20674 9.38062C6.36007 9.38062 6.50674 9.32729 6.62007 9.21395Z" fill="#C7C7C7"/>
</svg>
