<svg width="16" height="17" viewBox="0 0 16 17" fill="none" xmlns="http://www.w3.org/2000/svg">
<path fill-rule="evenodd" clip-rule="evenodd" d="M5.11337 1.55396H10.8934C13.1534 1.55396 14.6667 3.14062 14.6667 5.50062V10.948C14.6667 13.3006 13.1534 14.8873 10.8934 14.8873H5.11337C2.85337 14.8873 1.33337 13.3006 1.33337 10.948V5.50062C1.33337 3.14062 2.85337 1.55396 5.11337 1.55396ZM7.62004 10.214L10.7867 7.04729C11.0134 6.82062 11.0134 6.45395 10.7867 6.22062C10.56 5.99395 10.1867 5.99395 9.96004 6.22062L7.20671 8.97396L6.04004 7.80729C5.81337 7.58062 5.44004 7.58062 5.21337 7.80729C4.98671 8.03396 4.98671 8.40062 5.21337 8.63396L6.80004 10.214C6.91337 10.3273 7.06004 10.3806 7.20671 10.3806C7.36004 10.3806 7.50671 10.3273 7.62004 10.214Z" fill="#8D9299"/>
</svg>
