<svg width="38" height="38" viewBox="0 0 38 38" fill="none" xmlns="http://www.w3.org/2000/svg">
<rect width="38" height="38" rx="5" fill="#F6F5FF"/>
<path fill-rule="evenodd" clip-rule="evenodd" d="M14.6701 9H23.3401C26.7301 9 29.0001 11.38 29.0001 14.92V23.091C29.0001 26.62 26.7301 29 23.3401 29H14.6701C11.2801 29 9.00012 26.62 9.00012 23.091V14.92C9.00012 11.38 11.2801 9 14.6701 9ZM18.4301 21.99L23.1801 17.24C23.5201 16.9 23.5201 16.35 23.1801 16C22.8401 15.66 22.2801 15.66 21.9401 16L17.8101 20.13L16.0601 18.38C15.7201 18.04 15.1601 18.04 14.8201 18.38C14.4801 18.72 14.4801 19.27 14.8201 19.62L17.2001 21.99C17.3701 22.16 17.5901 22.24 17.8101 22.24C18.0401 22.24 18.2601 22.16 18.4301 21.99Z" fill="#341EFF"/>
</svg>
